<svg xmlns="http://www.w3.org/2000/svg" viewBox="0 0 500 500" width="250" height="250">
  <defs>
    <filter id="glow" x="-20%" y="-20%" width="140%" height="140%">
      <feGaussianBlur stdDeviation="8" result="blur" />
      <feMerge>
        <feMergeNode in="blur" />
        <feMergeNode in="SourceGraphic" />
      </feMerge>
    </filter>

    <linearGradient id="glassFrontLeft" x1="0%" y1="0%" x2="100%" y2="100%">
      <stop offset="0%" stop-color="#ffffff" stop-opacity="0.25" />
      <stop offset="100%" stop-color="#3B82F6" stop-opacity="0.05" />
    </linearGradient>
    
    <linearGradient id="glassFrontRight" x1="100%" y1="0%" x2="0%" y2="100%">
      <stop offset="0%" stop-color="#A855F7" stop-opacity="0.15" />
      <stop offset="100%" stop-color="#ffffff" stop-opacity="0.05" />
    </linearGradient>

    <linearGradient id="glassBack" x1="0%" y1="0%" x2="0%" y2="100%">
      <stop offset="0%" stop-color="#ffffff" stop-opacity="0.1" />
      <stop offset="100%" stop-color="#000000" stop-opacity="0.3" />
    </linearGradient>

    <radialGradient id="centerLight" cx="50%" cy="50%" r="50%">
      <stop offset="0%" stop-color="#ffffff" stop-opacity="0.9" />
      <stop offset="30%" stop-color="#ffffff" stop-opacity="0.5" />
      <stop offset="100%" stop-color="#a855f7" stop-opacity="0" />
    </radialGradient>

    <linearGradient id="textRainbow" x1="0%" y1="0%" x2="100%" y2="0%">
      <stop offset="0%" stop-color="#8B5CF6" />
      <stop offset="33%" stop-color="#EC4899" />
      <stop offset="66%" stop-color="#F59E0B" />
      <stop offset="100%" stop-color="#3B82F6" />
    </linearGradient>
  </defs>

  <g fill="none" stroke-width="2" stroke-linecap="round" opacity="0.4">
    <path d="M 50,100 L 80,100 M 50,115 L 100,115 M 60,130 L 90,130" stroke="#3B82F6" />
    <text x="60" y="80" fill="#A855F7" font-family="monospace" font-size="20" stroke="none">{ }</text>
    <circle cx="120" cy="70" r="5" stroke="#EC4899" />
    <path d="M 40,280 L 70,260 L 40,240" stroke="#F59E0B" stroke-linejoin="round" />
    
    <path d="M 450,80 L 400,80 M 450,95 L 380,95 M 430,110 L 390,110" stroke="#F59E0B" />
    <text x="380" y="60" fill="#3B82F6" font-family="monospace" font-size="24" stroke="none">+</text>
    <path d="M 460,300 L 430,320 L 460,340" stroke="#A855F7" stroke-linejoin="round" />
  </g>

  <line x1="-20" y1="280" x2="250" y2="210" stroke="#ffffff" stroke-width="6" filter="url(#glow)" />

  <g fill="none" stroke-width="6" stroke-linecap="round">
    <path d="M 250,210 L 410,230 A 30 30 0 0 1 410 290 L 360,290" stroke="#EF4444" />
    <path d="M 250,216 L 410,236 A 24 24 0 0 1 410 284 L 360,284" stroke="#F97316" />
    <path d="M 250,222 L 410,242 A 18 18 0 0 1 410 278 L 360,278" stroke="#F59E0B" />
    <path d="M 250,228 L 410,248 A 12 12 0 0 1 410 272 L 360,272" stroke="#10B981" />
    <path d="M 250,234 L 410,254 A 6 6 0 0 1 410 266 L 360,266" stroke="#3B82F6" />
    <path d="M 250,240 L 410,260 A 1 1 0 0 1 410 260 L 360,260" stroke="#8B5CF6" />
  </g>

  <g stroke="#ffffff" stroke-linejoin="round">
    <polygon points="250,50 100,340 250,270" fill="url(#glassBack)" stroke-width="1" opacity="0.6" />
    <polygon points="250,50 400,340 250,270" fill="url(#glassBack)" stroke-width="1" opacity="0.6" />
    
    <polygon points="100,340 250,420 400,340 250,270" fill="#000000" fill-opacity="0.4" stroke-width="1" />

    <circle cx="250" cy="225" r="70" fill="url(#centerLight)" stroke="none" />

    <polygon points="250,50 100,340 250,420" fill="url(#glassFrontLeft)" stroke-width="2.5" />
    <polygon points="250,50 400,340 250,420" fill="url(#glassFrontRight)" stroke-width="2.5" />
    
    <line x1="250" y1="50" x2="250" y2="420" stroke="#ffffff" stroke-width="3" opacity="0.8" />
  </g>

  <text x="250" y="475" font-family="Arial, Helvetica, sans-serif" font-weight="bold" font-size="44" fill="url(#textRainbow)" text-anchor="middle" letter-spacing="14">PRYSMA</text>
</svg>
